<svg width="62" height="62" viewBox="0 0 62 62" fill="none" xmlns="http://www.w3.org/2000/svg">
<path fill-rule="evenodd" clip-rule="evenodd" d="M40.7356 0.872559H22.0095C4.91913 0.872559 0.872559 4.91913 0.872559 22.0095V40.7356C0.872559 57.826 4.91913 61.8726 22.0095 61.8726H40.7356C57.826 61.8726 61.8726 57.826 61.8726 40.7356V22.0095C61.8726 4.91913 57.826 0.872559 40.7356 0.872559ZM24.7939 15.3314C26.5291 15.2524 27.0835 15.2331 31.5013 15.2331H31.4962C35.9154 15.2331 36.4678 15.2524 38.2029 15.3314C39.9346 15.4107 41.1174 15.6848 42.1544 16.0871C43.2253 16.5023 44.1301 17.058 45.035 17.9629C45.9398 18.867 46.4956 19.7746 46.9124 20.8445C47.3123 21.8788 47.5868 23.0608 47.6682 24.7926C47.7461 26.5277 47.7664 27.0821 47.7664 31.4999C47.7664 35.9177 47.7461 36.4708 47.6682 38.2059C47.5868 39.937 47.3123 41.1194 46.9124 42.154C46.4956 43.2236 45.9398 44.1311 45.035 45.0353C44.1311 45.9401 43.2249 46.4973 42.1554 46.9128C41.1204 47.315 39.937 47.5892 38.2053 47.6685C36.4701 47.7475 35.9174 47.7668 31.4993 47.7668C27.0818 47.7668 26.5277 47.7475 24.7926 47.6685C23.0612 47.5892 21.8788 47.315 20.8438 46.9128C19.7746 46.4973 18.867 45.9401 17.9632 45.0353C17.0587 44.1311 16.5029 43.2236 16.0871 42.1537C15.6852 41.1194 15.411 39.9373 15.3314 38.2056C15.2528 36.4705 15.2331 35.9177 15.2331 31.4999C15.2331 27.0821 15.2534 26.5274 15.331 24.7922C15.409 23.0612 15.6835 21.8788 16.0868 20.8441C16.5036 19.7746 17.0594 18.867 17.9642 17.9629C18.8684 17.0584 19.776 16.5026 20.8458 16.0871C21.8801 15.6848 23.0622 15.4107 24.7939 15.3314Z" fill="#4B5C48"/>
<path fill-rule="evenodd" clip-rule="evenodd" d="M30.0422 18.1647C30.3255 18.1643 30.6303 18.1644 30.9593 18.1646L31.5014 18.1647C35.8447 18.1647 36.3595 18.1803 38.0746 18.2582C39.6606 18.3308 40.5214 18.5958 41.0948 18.8184C41.8539 19.1133 42.3951 19.4657 42.9641 20.0351C43.5335 20.6044 43.8859 21.1466 44.1814 21.9057C44.4041 22.4785 44.6694 23.3393 44.7416 24.9253C44.8196 26.6401 44.8365 27.1552 44.8365 31.4964C44.8365 35.8376 44.8196 36.3527 44.7416 38.0675C44.6691 39.6535 44.4041 40.5143 44.1814 41.0871C43.8866 41.8462 43.5335 42.3867 42.9641 42.9557C42.3948 43.525 41.8543 43.8775 41.0948 44.1723C40.5221 44.396 39.6606 44.6603 38.0746 44.7329C36.3598 44.8108 35.8447 44.8277 31.5014 44.8277C27.1578 44.8277 26.6431 44.8108 24.9283 44.7329C23.3423 44.6597 22.4815 44.3946 21.9077 44.172C21.1486 43.8772 20.6064 43.5247 20.037 42.9554C19.4677 42.386 19.1153 41.8452 18.8197 41.0857C18.5971 40.513 18.3317 39.6522 18.2595 38.0662C18.1816 36.3514 18.166 35.8363 18.166 31.4923C18.166 27.1484 18.1816 26.636 18.2595 24.9212C18.3321 23.3352 18.5971 22.4744 18.8197 21.901C19.1146 21.1419 19.4677 20.5997 20.037 20.0303C20.6064 19.461 21.1486 19.1085 21.9077 18.813C22.4811 18.5893 23.3423 18.325 24.9283 18.2521C26.4289 18.1844 27.0104 18.164 30.0422 18.1606V18.1647ZM40.1845 20.8657C39.1069 20.8657 38.2325 21.739 38.2325 22.817C38.2325 23.8947 39.1069 24.769 40.1845 24.769C41.2622 24.769 42.1366 23.8947 42.1366 22.817C42.1366 21.7393 41.2622 20.865 40.1845 20.865V20.8657ZM23.1477 31.5001C23.1477 26.8868 26.8881 23.1464 31.5014 23.1464H31.5011C36.1144 23.1464 39.8538 26.8868 39.8538 31.5001C39.8538 36.1135 36.1148 39.8521 31.5014 39.8521C26.8881 39.8521 23.1477 36.1135 23.1477 31.5001Z" fill="#4B5C48"/>
<path d="M31.5014 26.0776C34.4958 26.0776 36.9237 28.5051 36.9237 31.4999C36.9237 34.4944 34.4958 36.9222 31.5014 36.9222C28.5066 36.9222 26.0791 34.4944 26.0791 31.4999C26.0791 28.5051 28.5066 26.0776 31.5014 26.0776Z" fill="#4B5C48"/>
</svg>
