<svg width="62" height="62" viewBox="0 0 62 62" fill="none" xmlns="http://www.w3.org/2000/svg">
<path fill-rule="evenodd" clip-rule="evenodd" d="M40.7356 0.872559H22.0095C4.91913 0.872559 0.872559 4.91913 0.872559 22.0095V40.7356C0.872559 57.826 4.91913 61.8726 22.0095 61.8726H40.7356C57.826 61.8726 61.8726 57.826 61.8726 40.7356V22.0095C61.8726 4.91913 57.826 0.872559 40.7356 0.872559ZM21.4238 26.6611C18.3685 27.9951 15.2292 29.3657 12.3586 30.9469L12.3584 30.9471C10.8595 32.0446 12.8519 32.8208 14.7209 33.5489C15.018 33.6647 15.312 33.7793 15.5884 33.8937C15.8184 33.9644 16.0522 34.0389 16.2892 34.1144C18.3679 34.7766 20.6858 35.5151 22.7038 34.4042C26.0188 32.4999 29.1473 30.2983 32.2733 28.0983C33.2975 27.3776 34.3215 26.657 35.3516 25.9471C35.3999 25.9162 35.4543 25.8809 35.5139 25.8423C36.3915 25.2734 38.3651 23.9941 37.6351 25.7569C35.9087 27.6449 34.0596 29.3161 32.2004 30.9965C30.9474 32.1289 29.6899 33.2655 28.4622 34.4754C27.393 35.3441 26.2828 37.0912 27.48 38.3077C30.2375 40.2381 33.0382 42.1218 35.8371 44.0043C36.748 44.617 37.6588 45.2295 38.5678 45.8435C40.1083 47.0734 42.5158 46.0786 42.8545 44.1566C43.0052 43.2725 43.1564 42.3884 43.3076 41.5042C44.1433 36.6183 44.9792 31.7306 45.7177 26.8288C45.8181 26.0599 45.9319 25.291 46.0457 24.5217C46.3216 22.6573 46.5979 20.7906 46.6841 18.9161C46.4617 17.0455 44.1936 17.4568 42.9313 17.8774C36.4435 20.3461 30.0204 22.9978 23.6228 25.6963C22.8981 26.0174 22.1634 26.3382 21.4238 26.6611Z" fill="#4B5C48"/>
</svg>
