<svg width="62" height="62" viewBox="0 0 62 62" fill="none" xmlns="http://www.w3.org/2000/svg">
<path fill-rule="evenodd" clip-rule="evenodd" d="M40.7356 0.873047H22.0095C4.91913 0.873047 0.872559 4.91962 0.872559 22.01V40.7361C0.872559 57.8265 4.91913 61.873 22.0095 61.873H40.7356C57.826 61.873 61.8726 57.8265 61.8726 40.7361V22.01C61.8726 4.91962 57.826 0.873047 40.7356 0.873047ZM49.4746 20.245C50.8091 20.245 51.1104 20.9337 50.8091 21.8808C50.3388 24.0513 46.4335 29.8089 45.2238 31.5922C44.994 31.931 44.8615 32.1264 44.8684 32.1264C44.3948 32.9013 44.2226 33.2457 44.8684 34.1066C45.1018 34.425 45.5968 34.9107 46.1625 35.4658C46.7443 36.0367 47.401 36.6811 47.9248 37.2922C49.819 39.4447 51.2826 41.2527 51.6701 42.5011C52.0144 43.7495 51.4118 44.3953 50.1203 44.3953H45.6863C44.5112 44.3953 43.9055 43.7205 42.6147 42.2823C42.0612 41.6656 41.3817 40.9086 40.4774 40.0043C37.8514 37.4644 36.6891 37.12 36.0434 37.12C35.1394 37.12 34.8811 37.3353 34.8811 38.6267V42.6303C34.8811 43.7065 34.5367 44.3522 31.6955 44.3522C27.0032 44.3522 21.7943 41.511 18.1351 36.216C12.6249 28.4673 11.1182 22.6126 11.1182 21.4503C11.1182 20.8046 11.3334 20.2019 12.6249 20.2019H17.102C18.2212 20.2019 18.6517 20.6754 19.0822 21.9239C21.2777 28.252 24.9368 33.8053 26.4435 33.8053C27.0032 33.8053 27.2614 33.547 27.2614 32.1264V25.583C27.1552 23.7231 26.5077 22.9127 26.0276 22.3118C25.7298 21.9392 25.4965 21.647 25.4965 21.2351C25.4965 20.7185 25.9269 20.2019 26.6157 20.2019H33.5896C34.5367 20.2019 34.8811 20.7185 34.8811 21.8378V30.6627C34.8811 31.6098 35.2685 31.9542 35.5698 31.9542C36.1295 31.9542 36.603 31.6098 37.6362 30.5766C40.8218 27.0036 43.1034 21.4934 43.1034 21.4934C43.4047 20.8476 43.9213 20.245 45.0406 20.245H49.4746Z" fill="#C79B59"/>
</svg>
