<svg width="62" height="62" viewBox="0 0 62 62" fill="none" xmlns="http://www.w3.org/2000/svg">
<path fill-rule="evenodd" clip-rule="evenodd" d="M21.5097 0.873047H40.2359C57.3262 0.873047 61.3728 4.91962 61.3728 22.01V40.7361C61.3728 57.8265 57.3262 61.873 40.2359 61.873H21.5097C4.41938 61.873 0.372803 57.8265 0.372803 40.7361V22.01C0.372803 4.91962 4.41938 0.873047 21.5097 0.873047Z" fill="#4B5C48"/>
<path d="M43.7317 18.25C40.3449 14.875 35.8293 13 31.0627 13C21.1533 13 13.1254 21 13.1254 30.875C13.1254 34 14.0035 37.125 15.5087 39.75L13 49L22.5331 46.5C25.1672 47.875 28.0523 48.625 31.0627 48.625C40.9721 48.625 49 40.625 49 30.75C48.8746 26.125 47.1185 21.625 43.7317 18.25ZM39.7178 37.25C39.3415 38.25 37.5854 39.25 36.7073 39.375C35.9547 39.5 34.9512 39.5 33.9477 39.25C33.3206 39 32.4425 38.75 31.439 38.25C26.9233 36.375 24.0383 31.875 23.7875 31.5C23.5366 31.25 21.9059 29.125 21.9059 26.875C21.9059 24.625 23.0348 23.625 23.4111 23.125C23.7875 22.625 24.2892 22.625 24.6655 22.625C24.9164 22.625 25.2927 22.625 25.5435 22.625C25.7944 22.625 26.1707 22.5 26.547 23.375C26.9233 24.25 27.8014 26.5 27.9268 26.625C28.0523 26.875 28.0523 27.125 27.9268 27.375C27.8014 27.625 27.676 27.875 27.4251 28.125C27.1742 28.375 26.9233 28.75 26.7979 28.875C26.547 29.125 26.2962 29.375 26.547 29.75C26.7979 30.25 27.676 31.625 29.0557 32.875C30.8118 34.375 32.1916 34.875 32.6934 35.125C33.1951 35.375 33.446 35.25 33.6969 35C33.9477 34.75 34.8258 33.75 35.0767 33.25C35.3275 32.75 35.7038 32.875 36.0801 33C36.4564 33.125 38.7143 34.25 39.0906 34.5C39.5923 34.75 39.8432 34.875 39.9686 35C40.0941 35.375 40.0941 36.25 39.7178 37.25Z" fill="white"/>
</svg>
