<svg width="310" height="81" viewBox="0 0 310 81" fill="none" xmlns="http://www.w3.org/2000/svg">
<path fill-rule="evenodd" clip-rule="evenodd" d="M12.9155 4.70619H297.084C297.084 8.94839 300.519 12.4615 304.811 12.4615V48.9841C300.585 48.9841 297.084 52.4309 297.084 56.7394H12.9155C12.9155 52.4972 9.48141 48.9841 5.18883 48.9841V12.4615C9.41537 12.3952 12.9155 8.94839 12.9155 4.70619ZM12.9155 0H301.707V4.70619C301.707 5.56789 302.037 6.29701 302.632 6.82728C303.16 7.35756 303.953 7.68899 304.811 7.68899H309.5V53.624H304.811C303.953 53.624 303.226 53.9555 302.632 54.4857C302.104 55.016 301.773 55.8114 301.773 56.6731V61.3793H8.22665V56.6731C8.22665 55.8114 7.89645 55.0823 7.36813 54.4857C6.83981 53.9555 6.04734 53.624 5.18883 53.624H0.5V7.75526H5.18883C6.04734 7.75526 6.77377 7.42384 7.36813 6.89357C7.89645 6.36329 8.29269 5.56787 8.29269 4.77246V0.0662884H12.9155V0Z" fill="#4B5441"/>
<path d="M182.902 17.8309C184.091 17.8972 185.081 17.9635 186.006 17.9635C186.864 18.0298 187.591 18.0298 188.119 18.0298C189.11 18.0298 190.761 17.9635 193.138 17.8309C193.468 17.8309 193.732 17.7646 193.93 17.7646V19.2229H193.6C192.279 19.2229 191.421 19.4217 191.025 19.6869C190.695 20.0183 190.496 20.88 190.496 22.2057V41.8921H196.11C198.421 41.8921 200.006 41.4282 200.931 40.5002C201.789 39.5722 202.384 37.7825 202.648 35.0649H203.902L203.242 43.5493C200.997 43.483 198.95 43.4167 197.1 43.4167C195.251 43.4167 193.798 43.3504 192.874 43.3504C190.893 43.3504 187.789 43.3504 183.562 43.4167H183.1V42.0247C184.421 42.0247 185.213 41.8259 185.543 41.4945C185.874 41.163 186.072 40.3013 186.072 39.0419V22.2057C186.072 20.88 185.874 20.0846 185.543 19.7532C185.213 19.4218 184.355 19.2229 183.1 19.2229V17.8309H182.902ZM217.044 23.2663L213.61 32.8112H220.214L217.044 23.2663ZM217.639 17.4995H219.554L227.809 40.235C228.073 41.0304 228.403 41.4945 228.799 41.7596C229.13 42.0247 229.724 42.1573 230.583 42.1573V43.5493C229.13 43.483 228.007 43.4167 227.347 43.4167C226.686 43.4167 226.158 43.3504 225.696 43.3504C225.167 43.3504 224.573 43.3504 223.78 43.4167C222.988 43.4167 221.865 43.483 220.412 43.5493V42.1573C221.271 42.1573 221.931 42.0247 222.328 41.8259C222.724 41.627 222.922 41.2956 222.922 40.7653C222.922 40.6328 222.922 40.4339 222.922 40.3013C222.922 40.1688 222.856 40.0362 222.856 39.9036L220.941 34.2694H213.346L211.893 38.3791C211.893 38.4454 211.827 38.5116 211.827 38.6442C211.497 39.6385 211.299 40.3013 211.299 40.699C211.299 41.163 211.431 41.5607 211.695 41.6933C211.959 41.8922 212.554 42.0247 213.346 42.091V43.483C212.686 43.4167 212.091 43.4167 211.563 43.3504C210.969 43.3504 210.44 43.3504 209.978 43.3504C209.582 43.3504 209.12 43.3504 208.525 43.3504C207.997 43.3504 207.403 43.4167 206.742 43.483V42.091C207.535 42.091 208.129 41.9584 208.459 41.6933C208.789 41.4282 209.12 40.8979 209.45 40.0362L217.639 17.4995ZM234.413 17.8309C235.337 17.8972 236.13 17.9635 236.79 17.9635C237.451 17.9635 237.979 18.0298 238.507 18.0298C238.904 18.0298 239.432 18.0298 240.026 17.9635C240.621 17.9635 241.413 17.8972 242.338 17.8309L256.206 36.5894V23.0011C256.206 21.2777 256.008 20.2172 255.612 19.8195C255.215 19.4218 254.291 19.2229 252.838 19.2229V17.8309C253.762 17.8972 254.621 17.9635 255.281 17.9635C255.942 17.9635 256.602 18.0298 257.131 18.0298C257.461 18.0298 257.923 18.0298 258.451 17.9635C258.98 17.9635 259.772 17.8972 260.829 17.8309V19.2892C259.574 19.3555 258.715 19.5543 258.385 19.8858C257.989 20.2835 257.857 21.2777 257.857 23.0011V33.474C257.857 35.7277 257.857 37.5837 257.857 39.1082C257.857 40.6328 257.791 42.1573 257.725 43.6818L255.876 43.483L239.366 21.2114V38.3791C239.366 40.1688 239.564 41.2293 239.96 41.5607C240.356 41.8921 241.281 42.091 242.734 42.091V43.483C241.677 43.4167 240.819 43.3504 240.158 43.3504C239.498 43.3504 238.97 43.2841 238.507 43.2841C238.243 43.2841 237.847 43.2841 237.319 43.3504C236.79 43.3504 235.932 43.4167 234.677 43.483V42.091C236.064 42.091 236.922 41.8922 237.319 41.4945C237.715 41.0967 237.913 40.0362 237.913 38.3128V22.2057C237.913 20.88 237.715 20.0183 237.385 19.6869C237.054 19.3555 236.196 19.2229 234.941 19.2229H234.611L234.413 17.8309ZM274.169 19.2892V42.091H276.678C278.197 42.091 279.386 42.0247 280.244 41.8259C281.037 41.6933 281.829 41.3619 282.424 41.0305C283.811 40.235 284.867 38.9757 285.528 37.186C286.188 35.4626 286.584 33.2752 286.584 30.6238C286.584 26.5805 285.792 23.664 284.207 21.9406C282.622 20.1509 279.98 19.2892 276.282 19.2892H274.169ZM266.706 17.8309C267.235 17.8972 267.763 17.8972 268.357 17.8972C268.952 17.8972 269.876 17.8972 271.065 17.8972C271.725 17.8972 272.782 17.8972 274.301 17.8309C275.754 17.7646 276.942 17.7646 277.801 17.7646C282.094 17.7646 285.528 18.8915 287.971 21.2114C290.415 23.4651 291.669 26.6467 291.669 30.6901C291.669 34.7997 290.481 37.9151 288.169 40.1025C285.858 42.2899 282.556 43.4167 278.263 43.4167C277.537 43.4167 276.414 43.4167 274.895 43.3504C273.376 43.2841 272.254 43.2841 271.461 43.2841C270.669 43.2841 269.81 43.2841 269.084 43.2841C268.291 43.2841 267.565 43.3504 266.772 43.4167V42.0247C268.093 42.0247 268.886 41.8259 269.216 41.4945C269.546 41.163 269.744 40.3013 269.744 39.0419V22.2057C269.744 20.88 269.546 20.0846 269.216 19.7532C268.886 19.4218 268.027 19.2229 266.772 19.2229V17.8309H266.706Z" fill="#B29B66"/>
<path d="M38.5386 19.6207L38.9348 17.9636H40.0575C39.9915 18.8253 39.9915 19.5544 39.9915 20.151C39.9915 20.8138 39.9915 21.3441 39.9915 21.8744C39.9915 22.7361 39.9915 24.0618 40.0575 25.8515V26.1166H38.8028C38.6046 23.7966 37.8782 22.007 36.6234 20.6813C35.3687 19.4219 33.7177 18.759 31.6044 18.759C28.8968 18.759 26.8496 19.7533 25.4627 21.7418C24.0759 23.7304 23.4155 26.7794 23.4155 30.7565C23.4155 34.5347 24.0759 37.3186 25.3967 39.2409C26.7175 41.1631 28.6326 42.0911 31.2082 42.0911C32.7931 42.0911 34.0479 41.826 34.9064 41.362C35.7649 40.898 36.2272 40.1689 36.2272 39.2409V36.2581C36.2272 35.065 35.1045 34.4021 32.7931 34.3358C32.2648 34.3358 31.8686 34.2696 31.5384 34.2696V32.9439C32.7271 33.0102 33.8498 33.0765 34.7743 33.0765C35.6989 33.0765 36.5574 33.1427 37.3499 33.1427C37.8122 33.1427 38.4065 33.1427 39.199 33.0765C39.9254 33.0765 41.0481 33.0102 42.501 32.9439V34.2696C41.7746 34.3358 41.2462 34.4684 40.9821 34.6673C40.7179 34.8661 40.5858 35.2638 40.5858 35.7941V42.0248L38.6707 40.9643C37.548 41.8923 36.3593 42.4888 35.1045 42.9528C33.8498 43.3505 32.3309 43.6157 30.6138 43.6157C26.7835 43.6157 23.8117 42.4888 21.6324 40.2352C19.4531 37.9815 18.3965 34.8661 18.3965 30.8891C18.3965 26.7794 19.5192 23.4652 21.8305 21.0127C24.1419 18.5602 27.1798 17.3008 31.0101 17.3008C32.3309 17.3008 33.5856 17.4996 34.8404 17.831C36.0951 18.3613 37.2839 18.8916 38.5386 19.6207ZM55.9071 29.8285C56.1712 29.8285 56.5014 29.8285 56.7656 29.8285C57.0297 29.8285 57.426 29.8285 57.8222 29.8285C59.9355 29.8285 61.4544 29.3645 62.3789 28.5028C63.3035 27.6411 63.7658 26.2492 63.7658 24.3269C63.7658 22.5372 63.3035 21.2115 62.3789 20.4161C61.4544 19.5544 60.0015 19.1567 58.0203 19.1567C57.6241 19.1567 56.9637 19.1567 56.0391 19.223C55.9731 19.223 55.9071 19.223 55.841 19.223L55.9071 29.8285ZM48.4446 17.7648C49.237 17.831 50.0295 17.831 50.756 17.831C51.5484 17.831 52.3409 17.831 53.1334 17.831C53.7938 17.831 54.7844 17.831 56.0391 17.7648C57.2939 17.6985 58.2184 17.6985 58.8128 17.6985C62.0488 17.6985 64.4262 18.2288 66.0111 19.223C67.5961 20.2836 68.3886 21.8081 68.3886 23.9292C68.3886 25.984 67.7282 27.5748 66.4734 28.6354C65.2187 29.6959 63.2375 30.2925 60.5959 30.4914C63.0393 30.6239 64.7564 31.1542 65.747 31.9496C66.8036 32.745 67.398 34.137 67.6621 36.1255C67.7282 36.6558 67.7942 37.3849 67.8603 38.2466C67.9923 40.3014 68.5206 41.362 69.4452 41.362C69.9075 41.362 70.3037 41.2294 70.6339 40.898C70.8981 40.5666 71.1622 40.0363 71.2943 39.3072L72.2849 39.506C72.0868 40.9643 71.6245 42.0248 70.8981 42.6877C70.1716 43.3505 69.115 43.7482 67.7942 43.7482C66.2753 43.7482 65.1526 43.3505 64.4922 42.5551C63.8318 41.7597 63.5016 40.434 63.5016 38.6443C63.5016 38.4455 63.5016 38.1141 63.5016 37.7164C63.5016 37.3186 63.5016 36.9872 63.5016 36.7221C63.5016 34.5347 63.1054 33.0765 62.2469 32.4136C61.4544 31.6845 59.9355 31.3531 57.6901 31.3531H55.841V39.042C55.841 40.3677 56.0391 41.2294 56.3693 41.5608C56.6995 41.8923 57.492 42.0911 58.8128 42.0911V43.4831C57.3599 43.4168 56.3033 43.3505 55.5769 43.3505C54.8504 43.3505 54.2561 43.2842 53.7938 43.2842C53.2655 43.2842 52.6711 43.2842 51.8786 43.3505C51.0862 43.3505 49.9635 43.4168 48.4446 43.4831V42.0911C49.7654 42.0911 50.5578 41.8923 50.888 41.5608C51.2182 41.2294 51.4164 40.3677 51.4164 39.042V22.2058C51.4164 20.8801 51.2182 20.0847 50.888 19.7533C50.5578 19.4219 49.6993 19.223 48.4446 19.223V17.7648ZM97.0498 17.6985C97.1159 18.5602 97.1159 19.4882 97.1819 20.5487C97.2479 21.6093 97.314 22.9349 97.4461 24.5258H96.2573C96.0592 22.4047 95.5309 21.0127 94.6724 20.2836C93.8799 19.5544 92.295 19.223 89.9836 19.223H84.5683V29.1657H87.0778C88.6628 29.1657 89.6534 28.9005 90.0496 28.4365C90.4458 27.9726 90.71 26.912 90.8421 25.1886H92.0308C92.0308 25.52 92.0308 26.0503 91.9648 26.7131C91.8987 28.3703 91.8987 29.4971 91.8987 30.0274C91.8987 30.9553 91.9648 32.4799 92.0308 34.601C92.0308 34.9324 92.0308 35.1975 92.0308 35.3301H90.8421C90.776 33.3416 90.4458 32.0822 89.9836 31.4856C89.5213 30.8891 88.5307 30.6239 87.0118 30.6239H84.5023V42.0248H91.2383C93.6157 42.0248 95.2667 41.6271 96.1253 40.7654C96.9838 39.97 97.5121 38.3129 97.7102 35.993H98.8989C98.7669 37.3849 98.6348 38.7106 98.5687 39.97C98.5027 41.2294 98.4367 42.3563 98.3706 43.4831H77.1058V42.0911C78.4266 42.0911 79.2191 41.8923 79.5493 41.5608C79.8795 41.2294 80.0776 40.3677 80.0776 39.1083V22.2721C80.0776 20.9464 79.8795 20.151 79.5493 19.8196C79.2191 19.4882 78.3606 19.2893 77.1058 19.2893V17.831H81.6626C84.8985 17.831 87.8043 17.831 90.3138 17.7648C92.9554 17.6985 95.1347 17.6985 97.0498 17.6985ZM125.249 17.6985C125.315 18.5602 125.315 19.4882 125.381 20.5487C125.447 21.6093 125.513 22.9349 125.645 24.5258H124.456C124.258 22.4047 123.73 21.0127 122.871 20.2836C122.079 19.5544 120.494 19.223 118.183 19.223H112.767V29.1657H115.277C116.862 29.1657 117.852 28.9005 118.249 28.4365C118.645 27.9726 118.909 26.912 119.041 25.1886H120.23C120.23 25.52 120.23 26.0503 120.164 26.7131C120.098 28.3703 120.098 29.4971 120.098 30.0274C120.098 30.9553 120.164 32.4799 120.23 34.601C120.23 34.9324 120.23 35.1975 120.23 35.3301H119.041C118.975 33.3416 118.645 32.0822 118.183 31.4856C117.72 30.8891 116.73 30.6239 115.211 30.6239H112.767V42.0248H119.503C121.881 42.0248 123.532 41.6271 124.39 40.7654C125.249 39.97 125.777 38.3129 125.975 35.993H127.164C127.032 37.3849 126.9 38.7106 126.834 39.97C126.768 41.2294 126.702 42.3563 126.636 43.4831H105.239V42.0911C106.56 42.0911 107.352 41.8923 107.682 41.5608C108.012 41.2294 108.211 40.3677 108.211 39.1083V22.2721C108.211 20.9464 108.012 20.151 107.682 19.8196C107.352 19.4882 106.494 19.2893 105.239 19.2893V17.831H109.795C113.031 17.831 115.937 17.831 118.447 17.7648C121.088 17.6985 123.334 17.6985 125.249 17.6985ZM132.843 17.7648C133.768 17.831 134.56 17.8973 135.221 17.8973C135.881 17.8973 136.41 17.9636 136.938 17.9636C137.334 17.9636 137.862 17.9636 138.457 17.8973C139.051 17.8973 139.844 17.831 140.768 17.7648L154.636 36.5232V22.935C154.636 21.2116 154.438 20.151 154.042 19.7533C153.646 19.3556 152.721 19.1567 151.268 19.1567V17.6985C152.193 17.7648 153.052 17.831 153.712 17.831C154.372 17.831 155.033 17.8973 155.561 17.8973C155.891 17.8973 156.354 17.8973 156.882 17.831C157.41 17.831 158.203 17.7648 159.259 17.6985V19.1567C158.005 19.223 157.146 19.4219 156.816 19.7533C156.42 20.151 156.287 21.1453 156.287 22.8687V33.3416C156.287 35.5953 156.287 37.4512 156.287 38.9758C156.287 40.5003 156.221 42.0248 156.155 43.5494L154.306 43.3505L137.796 21.079V38.2466C137.796 40.0363 137.994 41.0969 138.391 41.4283C138.787 41.7597 139.711 41.9586 141.164 41.9586V43.3505C140.108 43.2842 139.249 43.2179 138.589 43.2179C137.928 43.2179 137.4 43.1517 136.938 43.1517C136.674 43.1517 136.277 43.1517 135.749 43.2179C135.221 43.2179 134.362 43.2842 133.108 43.3505V41.9586C134.494 41.9586 135.353 41.7597 135.749 41.362C136.145 40.9643 136.343 39.9037 136.343 38.1804V22.0732C136.343 20.7476 136.145 19.8859 135.815 19.5544C135.485 19.223 134.626 19.0904 133.372 19.0904H133.041L132.843 17.7648Z" fill="#4B5441"/>
<path d="M198.686 75.5645H199.94C200.601 75.5645 201.261 75.5645 201.723 75.8296C202.45 76.2273 202.582 76.9564 202.582 77.4867C202.582 78.2821 202.318 78.7461 201.988 79.0113C201.393 79.6078 200.469 79.6078 200.006 79.6078H198.62V75.5645H198.686ZM197.497 80.8009H200.403C202.516 80.8009 203.903 79.6078 203.903 77.4867C203.903 74.7028 201.525 74.4376 200.205 74.4376H198.752V69.9303H197.563V80.8009H197.497ZM193.336 80.8009H194.657L189.836 69.4663L184.883 80.8009H186.204C188.251 75.8959 187.723 77.2216 189.836 72.2503C191.619 76.5587 191.685 76.6913 193.336 80.8009ZM182.638 69.9303H177.025V80.8009H182.638V79.6741H178.213V75.4319H182.506V74.3051H178.213V71.0571H182.638V69.9303ZM174.185 71.0571V69.9303H167.713V71.0571H170.355V80.8009H171.543V71.1234H174.185V71.0571ZM159.788 70.9246C162.232 70.9246 164.147 72.9131 164.147 75.3656C164.147 77.8844 162.166 79.8067 159.788 79.8067C157.345 79.8067 155.43 77.8181 155.43 75.3656C155.364 72.8468 157.345 70.9246 159.788 70.9246ZM159.788 80.9998C162.892 80.9998 165.402 78.6135 165.402 75.3656C165.402 72.1177 162.892 69.7314 159.788 69.7314C156.684 69.7314 154.175 72.1177 154.175 75.3656C154.175 78.6135 156.618 80.9998 159.788 80.9998ZM147.901 76.0285H151.467V74.8353H147.901V76.0285ZM139.316 69.9303H138.127V80.8009H139.316V76.161L139.646 75.8296L144.071 80.8009H145.722L140.505 75.0342L145.524 69.9966H143.873L139.25 74.6365V69.9303H139.316ZM130.665 71.0571H131.523C132.316 71.0571 133.901 71.1897 133.901 72.9131C133.901 74.1725 133.042 74.9016 131.589 74.9016H130.599V71.0571H130.665ZM129.476 69.9303V80.8009H130.665V76.0947H131.721C134.165 76.0947 135.155 74.5702 135.155 73.0457C135.155 72.3828 134.957 71.3886 134.165 70.7257C133.438 70.0629 132.514 69.9303 131.457 69.9303H129.476ZM119.9 76.5587L121.749 72.2503L123.532 76.5587H119.9ZM125.315 80.8009H126.636L121.815 69.4663L116.862 80.8009H118.183L119.504 77.7519H124.127L125.315 80.8009ZM106.098 69.9303V80.8009H107.287V71.1234H112.834V80.8009H114.023V69.9303H106.098Z" fill="#4B5441"/>
<path d="M95.4876 73.2642L93.5728 75.1855L95.4871 77.1075L97.4019 75.1861L95.4876 73.2642Z" fill="#B29B66"/>
<path fill-rule="evenodd" clip-rule="evenodd" d="M93.418 76.5585L15.8213 75.1665L55.3791 74.5037L93.484 73.8408L92.0972 75.1665L93.418 76.4922V76.5585Z" fill="#B29B66"/>
<path d="M214.5 73.2744L212.586 75.1963L214.501 77.1177L216.415 75.1957L214.5 73.2744Z" fill="#B29B66"/>
<path fill-rule="evenodd" clip-rule="evenodd" d="M216.516 76.5585L294.179 75.1665L254.621 74.5037L216.516 73.8408L217.903 75.1665L216.582 76.4922L216.516 76.5585Z" fill="#B29B66"/>
<path d="M12.4532 11.9977C13.5759 10.8709 14.5005 9.4126 14.9627 7.82177L15.1609 7.2915H294.773L294.971 7.82177C295.5 9.4126 296.358 10.8046 297.481 11.9977C298.603 13.1245 300.056 14.0525 301.641 14.5165L302.17 14.7153V46.6644L301.641 46.8633C300.056 47.3935 298.669 48.2552 297.481 49.3821C296.358 50.5089 295.434 51.9672 294.971 53.558L294.773 54.0883H15.1609L14.9627 53.558C14.4344 51.9672 13.5759 50.5752 12.4532 49.3821C11.3306 48.2552 9.87768 47.3272 8.29272 46.8633L7.7644 46.6644V14.7153L8.29272 14.5165C9.87768 13.9862 11.3306 13.1245 12.4532 11.9977ZM16.2835 8.88232C15.6892 10.4731 14.7646 11.9314 13.5759 13.1245C12.3872 14.3176 10.9343 15.2456 9.34935 15.8422V45.5376C10.9343 46.1341 12.3872 47.0621 13.5759 48.2552C14.7646 49.4483 15.6892 50.9066 16.2835 52.4974H293.65C294.245 50.9066 295.169 49.4483 296.358 48.2552C297.547 47.0621 299 46.1341 300.585 45.5376V15.8422C299 15.2456 297.547 14.3176 296.358 13.1245C295.169 11.9314 294.245 10.4731 293.65 8.88232H16.2835Z" fill="#B29B66"/>
</svg>
