<svg width="300" height="39" viewBox="0 0 300 39" fill="none" xmlns="http://www.w3.org/2000/svg">
<path d="M22.0343 22.6V20.4H37.4343C37.4343 25.24 36.1877 29.255 33.6943 32.445C30.4677 36.5517 25.866 38.605 19.8893 38.605C14.4627 38.605 9.93434 36.8267 6.30434 33.27C2.711 29.7133 0.914336 25.2033 0.914336 19.74C0.914336 14.35 2.74767 9.85833 6.41434 6.265C10.1177 2.635 14.6643 0.819997 20.0543 0.819997C24.271 0.819997 28.1027 2.14 31.5493 4.78C33.236 6.1 34.7027 7.64 35.9493 9.4L34.0243 10.94C33.1443 9.43666 31.971 8.08 30.5043 6.87C27.4243 4.30333 23.9227 3.02 19.9993 3.02C15.306 3.02 11.3643 4.65166 8.17434 7.915C5.021 11.1783 3.44434 15.1567 3.44434 19.85C3.44434 24.47 5.00267 28.3933 8.11934 31.62C11.236 34.81 15.141 36.405 19.8343 36.405C22.731 36.405 25.2977 35.8 27.5343 34.59C29.8077 33.3433 31.4943 31.8767 32.5943 30.19C34.061 27.9167 34.8677 25.3867 35.0143 22.6H22.0343ZM63.5297 38H60.7797L48.8997 20.675H47.7997V38H45.3797V1.315H50.6597C53.9964 1.315 56.5814 1.93833 58.4147 3.185C60.9447 4.945 62.2097 7.56667 62.2097 11.05C62.2097 13.0667 61.7147 14.8817 60.7247 16.495C59.7347 18.0717 58.1764 19.2267 56.0497 19.96C54.6564 20.4367 53.153 20.675 51.5397 20.675L63.5297 38ZM47.7997 3.515V18.475H51.3197C53.923 18.475 55.958 17.815 57.4247 16.495C58.928 15.175 59.6797 13.3417 59.6797 10.995C59.6797 7.915 58.598 5.78833 56.4347 4.615C55.1514 3.88166 53.2814 3.515 50.8247 3.515H47.7997ZM88.7072 1.315V3.515H73.5272V16.825H88.3772V19.025H73.5272V35.8H88.7072V38H71.1072V1.315H88.7072ZM114.22 1.315V3.515H99.0399V16.825H113.89V19.025H99.0399V35.8H114.22V38H96.6199V1.315H114.22ZM124.553 38H122.133V0.929999L152.933 33.16V1.315H155.353V38.935L124.553 6.705V38Z" fill="black"/>
<path d="M178.099 1.315H180.519V35.8H190.749V38H178.099V1.315ZM221.52 38L216.625 25.955H201.005L196.11 38H193.47L208.925 0.214998L224.16 38H221.52ZM201.885 23.755H215.745L208.87 6.375L201.885 23.755ZM232.297 38H229.877V0.929999L260.677 33.16V1.315H263.097V38.935L232.297 6.705V38ZM280.267 38H273.007V1.315H280.267C285.877 1.315 290.387 3.02 293.797 6.43C295.593 8.22667 296.913 10.3167 297.757 12.7C298.637 15.0833 299.077 17.4117 299.077 19.685C299.077 21.9217 298.655 24.2317 297.812 26.615C296.968 28.9617 295.63 31.0517 293.797 32.885C290.387 36.295 285.877 38 280.267 38ZM275.427 3.515V35.8H280.212C285.052 35.8 288.975 34.315 291.982 31.345C295.025 28.3383 296.547 24.4517 296.547 19.685C296.547 14.955 295.025 11.0867 291.982 8.08C288.938 5.03666 285.015 3.515 280.212 3.515H275.427Z" fill="#C79B59"/>
</svg>
